<svg width="167" height="21" viewBox="0 0 167 21" fill="none" xmlns="http://www.w3.org/2000/svg">
<path d="M0.570078 0.399999H3.23008V20H0.570078V0.399999ZM7.7068 0.399999H10.5908L20.2508 15.072V0.399999H22.9388V20H20.6708L10.3668 4.516V20H7.7068V0.399999ZM31.3136 2.808H25.6016V0.399999H39.6856V2.808H33.9736V20H31.3136V2.808ZM42.3513 0.399999H54.3073V2.808H45.0113V8.548H52.4033V10.956H45.0113V17.592H54.5593V20H42.3513V0.399999ZM57.8552 0.399999H60.5152V17.592H69.5032V20H57.8552V0.399999ZM119.862 14.708H112.358L110.482 20H107.682L114.71 0.399999H117.51L124.538 20H121.738L119.862 14.708ZM119.022 12.3L116.11 4.124L113.198 12.3H119.022ZM143.332 20L141.484 5.188L136.164 15.352L130.732 5.16L128.884 20H126.084L128.716 0.399999H130.984L136.136 10.116L141.232 0.399999H143.528L146.132 20H143.332ZM149.566 0.399999H156.818C158.722 0.399999 160.412 0.791999 161.886 1.576C163.361 2.34133 164.509 3.47067 165.33 4.964C166.152 6.43867 166.562 8.184 166.562 10.2C166.562 12.216 166.152 13.9707 165.33 15.464C164.509 16.9387 163.361 18.068 161.886 18.852C160.412 19.6173 158.722 20 156.818 20H149.566V0.399999ZM156.818 17.592C159.002 17.592 160.682 16.9293 161.858 15.604C163.053 14.26 163.65 12.4587 163.65 10.2C163.65 7.94133 163.053 6.14933 161.858 4.824C160.682 3.48 159.002 2.808 156.818 2.808H152.226V17.592H156.818Z" fill="black"/>
<path d="M76.1836 6.28H78.9836L82.8196 17.228L86.6276 6.28H89.4556L84.2476 20H81.4196L76.1836 6.28ZM95.2035 20.28C94.1208 20.28 93.1688 20.1587 92.3475 19.916C91.5448 19.6547 90.9288 19.3747 90.4995 19.076L90.8075 16.64C91.1808 16.976 91.7502 17.2933 92.5155 17.592C93.2995 17.8907 94.1582 18.04 95.0915 18.04C95.9688 18.04 96.6408 17.8907 97.1075 17.592C97.5928 17.2933 97.8355 16.8733 97.8355 16.332C97.8355 15.6973 97.5742 15.2213 97.0515 14.904C96.5288 14.568 95.8755 14.288 95.0915 14.064C94.2328 13.84 93.5048 13.6067 92.9075 13.364C92.3288 13.1027 91.8248 12.7107 91.3955 12.188C90.9848 11.6653 90.7795 10.9747 90.7795 10.116C90.7795 8.94 91.1995 7.96 92.0395 7.176C92.8795 6.392 94.1768 6 95.9315 6C96.7342 6 97.4155 6.084 97.9755 6.252C98.5355 6.40133 99.0955 6.616 99.6555 6.896L99.3475 9.192C98.8995 8.81867 98.4048 8.52933 97.8635 8.324C97.3222 8.1 96.6968 7.988 95.9875 7.988C95.1662 7.988 94.5128 8.14667 94.0275 8.464C93.5608 8.76267 93.3275 9.22 93.3275 9.836C93.3275 10.2467 93.4395 10.5827 93.6635 10.844C93.8875 11.0867 94.2048 11.292 94.6155 11.46C95.0262 11.628 95.6608 11.8427 96.5195 12.104C97.5835 12.4213 98.4982 12.8693 99.2635 13.448C100.048 14.0267 100.44 14.9413 100.44 16.192C100.44 17.312 100.038 18.2733 99.2355 19.076C98.4515 19.8787 97.1075 20.28 95.2035 20.28Z" fill="#0066FF"/>
</svg>
