<svg width="31" height="62" viewBox="0 0 31 62" fill="none" xmlns="http://www.w3.org/2000/svg">
<path d="M5.72205e-06 30.8431C5.72205e-06 30.3574 0.206806 29.811 0.51701 29.4468L24.6094 1.15607C24.9196 0.791813 25.3849 0.548973 25.7986 0.548973C26.2122 0.548973 26.6775 0.791813 26.9877 1.15607L29.5727 4.19156C29.8829 4.55581 30.0897 5.04149 30.0897 5.58788C30.0897 6.07355 29.8829 6.61994 29.5727 6.9842L9.25439 30.8431L29.5727 54.702C29.8829 55.0662 30.0897 55.6126 30.0897 56.0983C30.0897 56.584 29.8829 57.1304 29.5727 57.4946L26.9877 60.5301C26.6775 60.8944 26.2122 61.1372 25.7986 61.1372C25.3849 61.1372 24.9196 60.8944 24.6094 60.5301L0.51701 32.2394C0.206806 31.8752 5.72205e-06 31.3288 5.72205e-06 30.8431Z" fill="#444444"/>
</svg>
