<svg width="31" height="62" viewBox="0 0 31 62" fill="none" xmlns="http://www.w3.org/2000/svg">
<path d="M31 30.8432C31 31.3289 30.7932 31.8753 30.483 32.2395L6.39053 60.5302C6.08033 60.8945 5.61502 61.1373 5.20142 61.1373C4.78782 61.1373 4.32251 60.8945 4.01231 60.5302L1.42728 57.4947C1.11708 57.1305 0.910278 56.6448 0.910278 56.0984C0.910278 55.6127 1.11708 55.0663 1.42728 54.7021L21.7456 30.8432L1.42728 6.9843C1.11708 6.62004 0.910278 6.07365 0.910278 5.58797C0.910278 5.1023 1.11708 4.55591 1.42728 4.19165L4.01231 1.15617C4.32251 0.791911 4.78782 0.549072 5.20142 0.549072C5.61502 0.549072 6.08033 0.791911 6.39053 1.15617L30.483 29.4469C30.7932 29.8111 31 30.3575 31 30.8432Z" fill="#444444"/>
</svg>
